<?xml version="1.0" encoding="UTF-8" standalone="no"?>
<!DOCTYPE svg PUBLIC "-//W3C//DTD SVG 1.1//EN" "http://www.w3.org/Graphics/SVG/1.1/DTD/svg11.dtd">
<svg width="100%" height="100%" viewBox="0 0 1500 785" version="1.1" xmlns="http://www.w3.org/2000/svg" xmlns:xlink="http://www.w3.org/1999/xlink" xml:space="preserve" xmlns:serif="http://www.serif.com/" style="fill-rule:evenodd;clip-rule:evenodd;stroke-linejoin:round;stroke-miterlimit:2;">
    <g transform="matrix(4.16667,0,0,4.16667,0,0)">
        <g id="Layer-1" serif:id="Layer 1">
            <g transform="matrix(1,0,0,1,212.28,58.3452)">
                <path d="M0,71.634C0,76.313 -4.315,80.105 -8.992,80.105L-169.206,80.105C-173.883,80.105 -177.151,76.313 -177.151,71.634L-177.151,-0.001C-177.151,-4.679 -173.883,-8.471 -169.206,-8.471L-8.992,-8.471C-4.315,-8.471 0,-4.679 0,-0.001L0,71.634Z" style="fill:rgb(208,32,39);fill-rule:nonzero;"/>
            </g>
            <g transform="matrix(1,0,0,1,234.967,96.1671)">
                <path d="M0,8.567C-5.076,8.567 -6.791,4.676 -6.791,-1.322C-6.791,-8.44 -2.902,-10.484 0.063,-10.484C5.075,-10.484 6.723,-5.672 6.723,-1.322C6.723,3.36 4.943,8.567 0,8.567M2.636,-19.052C-1.386,-19.052 -4.548,-17.404 -6.791,-14.109L-6.924,-14.109L-6.924,-18.064L-17.601,-18.064L-17.601,27.619L-6.395,27.619L-6.395,12.458L-6.264,12.458C-3.955,15.554 -0.657,17.134 3.491,17.134C13.184,17.134 17.929,8.699 17.929,-0.2C17.929,-9.889 13.38,-19.052 2.636,-19.052" style="fill:rgb(8,10,15);fill-rule:nonzero;"/>
            </g>
            <g transform="matrix(1,0,0,1,270.295,84.0346)">
                <path d="M0,22.347C-2.571,22.347 -4.682,21.292 -4.682,18.457C-4.682,15.754 -2.637,14.701 -0.065,14.109C2.371,13.384 5.273,13.251 6.854,12.264C7.119,19.38 5.341,22.347 0,22.347M17.665,4.548C17.665,-5.141 9.821,-6.92 1.714,-6.92C-2.241,-6.92 -6.065,-6.327 -9.162,-4.548C-12.261,-2.768 -14.305,0.133 -14.502,4.615L-4.022,4.615C-3.494,1.782 -1.648,0.329 1.582,0.329C3.889,0.329 6.987,1.32 6.987,3.89C6.987,5.999 5.932,6.594 4.021,7.055C-3.757,8.638 -15.887,7.844 -15.887,18.92C-15.887,25.974 -10.813,29.267 -4.218,29.267C-0.065,29.267 4.153,28.149 7.052,25.05C7.251,26.17 7.251,27.226 7.713,28.282L18.984,28.282C17.665,25.577 17.665,22.412 17.665,19.513L17.665,4.548Z" style="fill:rgb(8,10,15);fill-rule:nonzero;"/>
            </g>
            <g transform="matrix(1,0,0,1,313.401,123.786)">
                <path d="M0,-45.683L-6.46,-23.404L-6.592,-23.404L-13.052,-45.683L-24.918,-45.683L-16.084,-21.887C-15.426,-20.04 -13.249,-14.768 -13.249,-12.921C-13.249,-10.55 -15.16,-9.1 -17.731,-9.1L-21.621,-9.1L-21.621,0L-16.347,0C-8.832,0 -4.68,-0.924 -2.044,-8.439L11.47,-45.683L0,-45.683Z" style="fill:rgb(8,10,15);fill-rule:nonzero;"/>
            </g>
            <g transform="matrix(1,0,0,1,157.039,92.2111)">
                <path d="M0,4.897C0.351,2.788 1.154,1.167 2.409,0.035C3.666,-1.094 5.425,-1.659 7.688,-1.659C9.595,-1.659 11.164,-1.019 12.396,0.262C13.626,1.544 14.242,3.088 14.242,4.897L0,4.897ZM-65.004,12.546C-65.129,13.678 -65.417,14.72 -65.871,15.673C-66.323,16.629 -66.976,17.421 -67.83,18.048C-68.685,18.677 -69.815,18.991 -71.221,18.991C-72.627,18.991 -73.758,18.677 -74.612,18.048C-75.467,17.421 -76.119,16.629 -76.571,15.673C-77.025,14.72 -77.314,13.678 -77.439,12.546C-77.565,11.416 -77.628,10.324 -77.628,9.269C-77.628,8.213 -77.565,7.12 -77.439,5.99C-77.314,4.859 -77.025,3.83 -76.571,2.9C-76.119,1.97 -75.467,1.193 -74.612,0.563C-73.758,-0.065 -72.627,-0.378 -71.221,-0.378C-69.815,-0.378 -68.685,-0.065 -67.83,0.563C-66.976,1.193 -66.323,1.97 -65.871,2.9C-65.417,3.83 -65.129,4.859 -65.004,5.99C-64.878,7.12 -64.813,8.213 -64.813,9.269C-64.813,10.324 -64.878,11.416 -65.004,12.546M27.281,2.485C26.426,-0.479 25.096,-2.978 23.288,-5.013C21.478,-7.047 19.167,-8.594 16.354,-9.649C13.537,-10.704 10.199,-11.232 6.328,-11.232C3.214,-11.232 0.387,-10.69 -2.149,-9.61C-4.687,-8.53 -6.859,-7.047 -8.669,-5.164C-9.98,-3.799 -11.069,-2.273 -11.945,-0.592C-12.122,-1.78 -12.421,-2.867 -12.849,-3.845C-13.578,-5.503 -14.572,-6.872 -15.827,-7.952C-17.085,-9.033 -18.515,-9.849 -20.124,-10.402C-21.731,-10.955 -23.415,-11.232 -25.173,-11.232C-28.188,-11.232 -30.713,-10.728 -32.746,-9.724C-34.783,-8.719 -36.504,-7.238 -37.908,-5.276L-38.06,-5.276L-38.06,-10.251L-52.456,-10.251L-52.456,-1.383C-53.172,-2.692 -54.035,-3.904 -55.055,-5.013C-56.789,-6.898 -58.999,-8.404 -61.688,-9.534C-64.375,-10.665 -67.555,-11.232 -71.221,-11.232C-74.89,-11.232 -78.067,-10.665 -80.755,-9.534C-82.875,-8.644 -84.692,-7.515 -86.218,-6.155L-86.218,-10.251L-94.057,-10.251C-94.158,-12.06 -93.869,-13.29 -93.19,-13.945C-92.512,-14.597 -91.268,-14.923 -89.459,-14.923C-88.856,-14.923 -88.253,-14.86 -87.649,-14.735C-87.047,-14.609 -86.446,-14.497 -85.842,-14.395L-85.842,-24.645C-86.999,-24.695 -88.116,-24.76 -89.195,-24.835C-90.277,-24.911 -91.393,-24.947 -92.55,-24.947C-95.564,-24.947 -98.088,-24.733 -100.124,-24.309C-102.158,-23.878 -103.98,-22.862 -105.588,-21.255C-107.045,-19.797 -107.951,-18.077 -108.301,-16.093C-108.654,-14.107 -108.779,-12.161 -108.678,-10.251L-114.782,-10.251L-114.782,-1.057L-108.678,-1.057L-108.678,28.864L-93.756,28.864L-93.756,-1.057L-90.164,-1.057C-90.589,-0.24 -90.958,0.613 -91.268,1.506C-92.124,3.968 -92.55,6.557 -92.55,9.269C-92.55,11.982 -92.124,14.582 -91.268,17.069C-90.415,19.555 -89.12,21.742 -87.388,23.626C-85.653,25.51 -83.443,27.018 -80.755,28.147C-78.067,29.278 -74.89,29.844 -71.221,29.844C-67.555,29.844 -64.375,29.278 -61.688,28.147C-58.999,27.018 -56.789,25.51 -55.055,23.626C-54.035,22.517 -53.172,21.3 -52.456,19.983L-52.456,28.864L-37.533,28.864L-37.533,8.213C-37.533,6.659 -37.344,5.387 -36.967,4.408C-36.591,3.427 -36.113,2.662 -35.537,2.108C-34.959,1.556 -34.318,1.18 -33.614,0.978C-32.911,0.779 -32.234,0.677 -31.579,0.677C-30.474,0.677 -29.608,0.865 -28.979,1.243C-28.35,1.62 -27.861,2.147 -27.509,2.824C-27.158,3.503 -26.931,4.321 -26.83,5.273C-26.73,6.23 -26.678,7.26 -26.678,8.365L-26.678,28.864L-11.757,28.864L-11.757,19.946C-10.768,21.701 -9.537,23.229 -8.066,24.532C-6.106,26.263 -3.784,27.582 -1.095,28.487C1.592,29.39 4.495,29.844 7.61,29.844C9.82,29.844 11.967,29.591 14.055,29.09C16.139,28.588 18.073,27.834 19.858,26.828C21.639,25.825 23.211,24.543 24.568,22.986C25.924,21.428 26.979,19.594 27.733,17.484L13.866,17.484C13.26,18.439 12.361,19.142 11.176,19.594C9.988,20.046 8.787,20.272 7.575,20.272C5.201,20.272 3.382,19.569 2.122,18.163C0.856,16.755 0.125,14.921 -0.076,12.661L28.562,12.661C28.562,8.842 28.136,5.451 27.281,2.485" style="fill:white;"/>
            </g>
            <g transform="matrix(-0.803706,0.595026,0.595026,0.803706,203.782,79.2573)">
                <path d="M12.455,-25.596C13.596,-24.275 14.739,-22.95 15.862,-21.647C9.211,-14.787 8.111,-7.207 12.455,1.23C10.956,2.168 9.467,3.098 7.926,4.062C0.98,-6.733 5.154,-20.281 12.455,-25.596" style="fill:white;"/>
            </g>
            <g transform="matrix(-0.904954,0.42551,0.42551,0.904954,190.976,84.0523)">
                <path d="M7.283,-12.104C8.147,-10.586 9.02,-9.061 9.937,-7.45C7.29,-5.614 6.56,-3.151 7.283,-0.182C5.546,0.467 3.907,1.086 2.271,1.697C0.1,-2.994 2.766,-10.325 7.283,-12.104" style="fill:white;"/>
            </g>
        </g>
    </g>
</svg>
